<svg width="18" height="16" viewBox="0 0 18 16" fill="none" xmlns="http://www.w3.org/2000/svg">
<path d="M16.7254 13.763L12.9965 10.0338C13.6301 9.02518 13.9978 7.83301 13.9978 6.55359C13.9978 2.93393 11.0635 0 7.44397 0C3.82445 0 0.890381 2.93393 0.890381 6.55359C0.890381 10.1734 3.82431 13.107 7.44397 13.107C8.83631 13.107 10.126 12.6717 11.1872 11.9321L14.8717 15.6169C15.1277 15.8726 15.4634 16 15.7986 16C16.1342 16 16.4694 15.8726 16.7258 15.6169C17.2375 15.1047 17.2375 14.275 16.7254 13.763ZM7.44397 10.9838C4.9975 10.9838 3.01406 9.00046 3.01406 6.55386C3.01406 4.10726 4.9975 2.12381 7.44397 2.12381C9.89057 2.12381 11.8739 4.10726 11.8739 6.55386C11.8739 9.00046 9.89057 10.9838 7.44397 10.9838Z" fill="white"/>
</svg>
