<svg width="35" height="35" viewBox="0 0 35 35" fill="none" xmlns="http://www.w3.org/2000/svg">
<path d="M17.5 11.1364C16.2414 11.1364 15.011 11.5096 13.9646 12.2088C12.9181 12.9081 12.1024 13.9019 11.6208 15.0647C11.1391 16.2275 11.0131 17.5071 11.2586 18.7415C11.5042 19.9759 12.1103 21.1098 13.0002 21.9998C13.8902 22.8897 15.0241 23.4958 16.2585 23.7414C17.4929 23.9869 18.7725 23.8609 19.9353 23.3792C21.0981 22.8976 22.0919 22.0819 22.7912 21.0354C23.4904 19.989 23.8636 18.7586 23.8636 17.5C23.8621 15.8127 23.1911 14.195 21.998 13.002C20.805 11.8089 19.1873 11.1379 17.5 11.1364ZM17.5 20.6818C16.8707 20.6818 16.2555 20.4952 15.7323 20.1456C15.209 19.796 14.8012 19.299 14.5604 18.7176C14.3196 18.1362 14.2565 17.4965 14.3793 16.8793C14.5021 16.262 14.8051 15.6951 15.2501 15.2501C15.6951 14.8051 16.262 14.5021 16.8793 14.3793C17.4965 14.2565 18.1362 14.3196 18.7176 14.5604C19.299 14.8012 19.796 15.209 20.1456 15.7323C20.4952 16.2555 20.6818 16.8707 20.6818 17.5C20.6795 18.3431 20.3435 19.1511 19.7473 19.7473C19.1511 20.3435 18.3431 20.6795 17.5 20.6818Z" fill="white"/>
<path d="M27.6222 32.1264L32.1264 27.6222C32.2753 27.4754 32.3935 27.3004 32.4742 27.1075C32.5549 26.9147 32.5964 26.7077 32.5964 26.4986C32.5964 26.2895 32.5549 26.0825 32.4742 25.8896C32.3935 25.6967 32.2753 25.5218 32.1264 25.375L30.4162 23.6648C30.633 23.2113 30.8255 22.7467 30.9929 22.2727H33.4091C33.831 22.2727 34.2357 22.1051 34.534 21.8068C34.8324 21.5084 35 21.1038 35 20.6818V14.3182C35 13.8962 34.8324 13.4916 34.534 13.1932C34.2357 12.8949 33.831 12.7273 33.4091 12.7273H30.983C30.8156 12.2533 30.6231 11.7887 30.4062 11.3352L32.1165 9.625C32.2654 9.4782 32.3836 9.30327 32.4643 9.11038C32.5449 8.9175 32.5865 8.7105 32.5865 8.50142C32.5865 8.29234 32.5449 8.08534 32.4643 7.89246C32.3836 7.69957 32.2654 7.52465 32.1165 7.37784L27.6122 2.87358C27.4654 2.72471 27.2905 2.60649 27.0976 2.5258C26.9047 2.44512 26.6977 2.40357 26.4886 2.40357C26.2796 2.40357 26.0726 2.44512 25.8797 2.5258C25.6868 2.60649 25.5119 2.72471 25.3651 2.87358L23.6648 4.58381C23.2121 4.36524 22.7473 4.17269 22.2727 4.0071V1.59091C22.2727 1.16897 22.1051 0.76432 21.8068 0.465967C21.5084 0.167613 21.1038 0 20.6818 0H14.3182C13.8962 0 13.4916 0.167613 13.1932 0.465967C12.8949 0.76432 12.7273 1.16897 12.7273 1.59091V4.01705C12.2533 4.18441 11.7887 4.37692 11.3352 4.59375L9.625 2.88352C9.4782 2.73465 9.30327 2.61644 9.11038 2.53575C8.9175 2.45506 8.7105 2.41351 8.50142 2.41351C8.29234 2.41351 8.08534 2.45506 7.89246 2.53575C7.69957 2.61644 7.52465 2.73465 7.37784 2.88352L2.87358 7.37784C2.72543 7.52505 2.60785 7.70011 2.52762 7.89294C2.44739 8.08577 2.40608 8.29257 2.40608 8.50142C2.40608 8.71028 2.44739 8.91707 2.52762 9.1099C2.60785 9.30273 2.72543 9.47779 2.87358 9.625L4.58381 11.3352C4.36524 11.7879 4.17269 12.2527 4.0071 12.7273H1.59091C1.16897 12.7273 0.76432 12.8949 0.465966 13.1932C0.167613 13.4916 0 13.8962 0 14.3182V20.6818C0 21.1038 0.167613 21.5084 0.465966 21.8068C0.76432 22.1051 1.16897 22.2727 1.59091 22.2727H4.01705C4.18441 22.7467 4.37692 23.2113 4.59375 23.6648L2.88352 25.375C2.73537 25.5222 2.61779 25.6973 2.53756 25.8901C2.45733 26.0829 2.41603 26.2897 2.41603 26.4986C2.41603 26.7074 2.45733 26.9142 2.53756 27.1071C2.61779 27.2999 2.73537 27.4749 2.88352 27.6222L7.38778 32.1264C7.53459 32.2753 7.70952 32.3935 7.9024 32.4742C8.09529 32.5549 8.30228 32.5964 8.51136 32.5964C8.72044 32.5964 8.92744 32.5549 9.12033 32.4742C9.31321 32.3935 9.48814 32.2753 9.63494 32.1264L11.3452 30.4162C11.7978 30.6348 12.2626 30.8273 12.7372 30.9929V33.4091C12.7372 33.831 12.9048 34.2357 13.2032 34.534C13.5015 34.8324 13.9062 35 14.3281 35H20.6918C20.9007 35 21.1076 34.9589 21.3006 34.8789C21.4936 34.799 21.669 34.6818 21.8167 34.534C21.9644 34.3863 22.0816 34.2109 22.1616 34.0179C22.2415 33.8249 22.2827 33.618 22.2827 33.4091V30.983C22.7566 30.8156 23.2213 30.6231 23.6747 30.4062L25.3849 32.1165C25.5307 32.2649 25.7044 32.3829 25.8961 32.4638C26.0877 32.5447 26.2935 32.5868 26.5015 32.5877C26.7095 32.5886 26.9156 32.5483 27.108 32.4692C27.3003 32.39 27.4751 32.2735 27.6222 32.1264ZM25.0767 27.3338C24.8289 27.0833 24.5044 26.9228 24.155 26.8778C23.8055 26.8328 23.451 26.9058 23.1477 27.0852C22.2541 27.6134 21.2899 28.0118 20.2841 28.2685C19.9425 28.3567 19.6398 28.556 19.4238 28.8349C19.2079 29.1139 19.0907 29.4568 19.0909 29.8097V31.8182H15.9091V29.8097C15.9093 29.4568 15.7921 29.1139 15.5762 28.8349C15.3602 28.556 15.0575 28.3567 14.7159 28.2685C13.7101 28.0118 12.7459 27.6134 11.8523 27.0852C11.5491 26.9056 11.1945 26.8325 10.845 26.8775C10.4955 26.9226 10.171 27.0832 9.9233 27.3338L8.50142 28.7557L6.25426 26.5085L7.67614 25.0866C7.92742 24.8372 8.08832 24.5111 8.13335 24.1599C8.17837 23.8087 8.10495 23.4525 7.92472 23.1477C7.39488 22.2549 6.99638 21.2905 6.74148 20.2841C6.65327 19.9425 6.45399 19.6398 6.175 19.4238C5.896 19.2079 5.55312 19.0907 5.20028 19.0909H3.18182V15.9091H5.19034C5.54318 15.9093 5.88606 15.7921 6.16506 15.5762C6.44405 15.3602 6.64333 15.0575 6.73153 14.7159C6.98824 13.7101 7.38664 12.7459 7.91477 11.8523C8.09501 11.5475 8.16843 11.1913 8.1234 10.8401C8.07838 10.4889 7.91748 10.1628 7.66619 9.91335L6.25426 8.50142L8.50142 6.25426L9.9233 7.67614C10.1713 7.92631 10.4957 8.08659 10.8451 8.13162C11.1945 8.17664 11.5489 8.10383 11.8523 7.92472C12.7459 7.39658 13.7101 6.99818 14.7159 6.74148C15.0575 6.65327 15.3602 6.45399 15.5762 6.175C15.7921 5.896 15.9093 5.55312 15.9091 5.20028V3.18182H19.0909V5.19034C19.0907 5.54318 19.2079 5.88606 19.4238 6.16506C19.6398 6.44405 19.9425 6.64333 20.2841 6.73153C21.2893 6.99005 22.2532 7.38834 23.1477 7.91477C23.4509 8.0944 23.8055 8.16751 24.155 8.12247C24.5045 8.07743 24.829 7.91682 25.0767 7.66619L26.4986 6.24432L28.7457 8.49148L27.3239 9.91335C27.0737 10.1614 26.9134 10.4858 26.8684 10.8352C26.8234 11.1846 26.8962 11.539 27.0753 11.8423C27.6034 12.736 28.0018 13.7002 28.2585 14.706C28.3467 15.0476 28.546 15.3502 28.825 15.5662C29.104 15.7822 29.4469 15.8993 29.7997 15.8991H31.8182V19.081H29.8097C29.4568 19.0808 29.1139 19.1979 28.8349 19.4139C28.556 19.6299 28.3567 19.9325 28.2685 20.2741C28.01 21.2793 27.6117 22.2433 27.0852 23.1378C26.9056 23.441 26.8325 23.7955 26.8775 24.1451C26.9226 24.4946 27.0832 24.819 27.3338 25.0668L28.7557 26.4886L26.5085 28.7358L25.0767 27.3338Z" fill="white"/>
</svg>
