<svg width="17" height="16" viewBox="0 0 17 16" fill="none" xmlns="http://www.w3.org/2000/svg">
<path d="M15.8351 13.763L12.1062 10.0338C12.7397 9.02518 13.1074 7.83301 13.1074 6.55359C13.1074 2.93393 10.1731 0 6.55359 0C2.93407 0 0 2.93393 0 6.55359C0 10.1734 2.93393 13.107 6.55359 13.107C7.94593 13.107 9.23559 12.6717 10.2968 11.9321L13.9813 15.6169C14.2373 15.8726 14.573 16 14.9082 16C15.2438 16 15.579 15.8726 15.8355 15.6169C16.3471 15.1047 16.3471 14.275 15.8351 13.763ZM6.55359 10.9838C4.10712 10.9838 2.12368 9.00046 2.12368 6.55386C2.12368 4.10726 4.10712 2.12381 6.55359 2.12381C9.00019 2.12381 10.9835 4.10726 10.9835 6.55386C10.9835 9.00046 9.00019 10.9838 6.55359 10.9838Z" fill="#333333"/>
</svg>
