<svg width="35" height="35" viewBox="0 0 35 35" fill="none" xmlns="http://www.w3.org/2000/svg">
<path d="M32.8126 8.75003H2.18747C0.980034 8.75003 0 9.73 0 10.9375V17.5H2.18747V32.8125C2.18747 34.02 3.16751 35 4.37495 35H30.6251C31.8326 35 32.8125 34.02 32.8125 32.8125V17.5001H35V10.9376C35.0001 9.73 34.0201 8.75003 32.8126 8.75003ZM15.3125 32.8126H4.37502V17.5001H15.3125V32.8126ZM15.3125 15.3125H2.18747V10.9375H15.3125V15.3125ZM30.6251 32.8126H19.7335V17.5001H30.6251V32.8126ZM32.8126 15.3125H19.7335V10.9375H32.8126V15.3125Z" fill="white"/>
<path d="M8.75003 6.56249H17.5001L17.4979 6.54501H17.5044L17.5001 6.56249H26.25C29.271 6.56249 30.6251 5.09247 30.6251 3.28121C30.6251 1.46995 29.271 0 26.2501 0C23.4216 0 21.1948 1.2731 19.6876 2.74973C19.027 2.35817 18.2657 2.11975 17.4367 2.11975C16.6448 2.11975 15.912 2.34289 15.2689 2.70602C13.7638 1.24688 11.5501 0 8.75003 0C5.72906 0 4.37502 1.47002 4.37502 3.28128C4.37502 5.09254 5.72906 6.56249 8.75003 6.56249ZM26.2501 2.18747C27.2476 2.18747 28.4376 2.37778 28.4376 3.28121C28.4376 4.18464 27.2476 4.37495 26.2501 4.37495H21.2823L21.2342 4.28306C22.3432 3.20254 24.0276 2.18747 26.2501 2.18747ZM8.75003 2.18747C10.9244 2.18747 12.5738 3.1609 13.685 4.20433L13.5909 4.37495H8.75003C7.75252 4.37495 6.56256 4.18464 6.56256 3.28121C6.56256 2.37778 7.75252 2.18747 8.75003 2.18747Z" fill="white"/>
</svg>
