<svg width="15" height="20" viewBox="0 0 15 20" fill="none" xmlns="http://www.w3.org/2000/svg">
<path d="M7.24325 0C3.2493 0 0 3.2493 0 7.24321C0 12.1998 6.482 19.4763 6.75798 19.7837C7.0172 20.0724 7.46977 20.0719 7.72853 19.7837C8.0045 19.4763 14.4865 12.1998 14.4865 7.24321C14.4864 3.2493 11.2372 0 7.24325 0ZM7.24325 10.8875C5.2338 10.8875 3.59903 9.25267 3.59903 7.24321C3.59903 5.23376 5.23383 3.59899 7.24325 3.59899C9.25267 3.59899 10.8874 5.2338 10.8874 7.24325C10.8874 9.25271 9.25267 10.8875 7.24325 10.8875Z" fill="#FFB619"/>
</svg>
