<svg width="13" height="20" viewBox="0 0 13 20" fill="none" xmlns="http://www.w3.org/2000/svg">
<path d="M11.3478 0H1.26087C0.56613 0 0 0.56125 0 1.25V18.75C0 19.44 0.56613 20 1.26087 20H11.3478C12.0438 20 12.6087 19.44 12.6087 18.75V1.25C12.6087 0.56125 12.0438 0 11.3478 0ZM6.30435 18.75C5.60835 18.75 5.04348 18.19 5.04348 17.5C5.04348 16.81 5.60835 16.25 6.30435 16.25C7.00035 16.25 7.56522 16.81 7.56522 17.5C7.56522 18.19 7.00035 18.75 6.30435 18.75ZM11.3478 15H1.26087V2.5H11.3478V15Z" fill="#FFB619"/>
</svg>
