<svg width="17" height="24" viewBox="0 0 17 24" fill="none" xmlns="http://www.w3.org/2000/svg">
<path d="M14.5522 0H2.44786C1.61417 0 0.934814 0.6735 0.934814 1.5V22.5C0.934814 23.328 1.61417 24 2.44786 24H14.5522C15.3874 24 16.0652 23.328 16.0652 22.5V1.5C16.0652 0.6735 15.3874 0 14.5522 0ZM8.50003 22.5C7.66483 22.5 6.98699 21.828 6.98699 21C6.98699 20.172 7.66483 19.5 8.50003 19.5C9.33523 19.5 10.0131 20.172 10.0131 21C10.0131 21.828 9.33523 22.5 8.50003 22.5ZM14.5522 18H2.44786V3H14.5522V18Z" fill="white"/>
</svg>
