<svg width="20" height="15" viewBox="0 0 20 15" fill="none" xmlns="http://www.w3.org/2000/svg">
<path d="M18.7451 5.06162C18.214 5.06162 17.7829 5.49272 17.7829 6.02389V11.2779C17.7829 12.271 16.9745 13.0793 15.9815 13.0793H3.72593C2.73286 13.0793 1.92455 12.271 1.92455 11.2779V3.17171L8.44493 9.24559C8.84139 9.61126 9.34562 9.79601 9.8537 9.79601C10.3618 9.79601 10.866 9.61126 11.2625 9.24559L19.4033 1.66286C19.692 1.39342 19.7882 0.973868 19.642 0.608203C19.4957 0.23869 19.1416 4.51637e-05 18.7451 4.51637e-05H0.962276C0.565818 -0.00380394 0.211701 0.23869 0.0654348 0.608203C0.0230946 0.723677 0 0.842999 0 0.958472V11.2741C0 13.3295 1.67051 15 3.72593 15H15.9815C18.0369 15 19.7074 13.3295 19.7074 11.2741V6.02389C19.7074 5.48887 19.2763 5.06162 18.7451 5.06162ZM16.301 1.92075L9.94993 7.83682C9.89604 7.88686 9.81136 7.88686 9.75748 7.83682L3.40646 1.92075H16.301Z" fill="#FFB619"/>
</svg>
